# xmcd CD database file
#
# Track frame offsets:
#	150
#	25673
#	40528
#	53400
#	69593
#	84463
#	98585
#	109853
#	130003
#	149373
#	157880
#	182990
#	205133
#	224333
#	240398
#	252120
#
# Disc length: 4071 seconds
#
# Revision: 2
# Processed by: cddbd v1.5.1PL0 Copyright (c) Steve Scherf et al.
# Submitted via: CDex 1.51
#
DISCID=cb0fe510
DTITLE=Oscar Peterson - Oscar Peterson Plays Broadway - Verve Jazz Masters 37
DYEAR=1994
DGENRE=Jazz
TTITLE0=I Want to Be Happy [Vincent Youman-Irving Caesar] [1953]
TTITLE1=Easter Parade [Irving Berlin] [1952]
TTITLE2=Lover, Come Back to Me [Sigmund Romberg-Oscar Hammerstein II) [1950]
TTITLE3=All the Things You Are [Jerome David Kern-Oscar Hammerstein II) [1950]
TTITLE4=Strike Up the Band [George and Ira Gershwin] [1952]
TTITLE5=I Get a Kick out of You [Cole Albert Porter] [1950]
TTITLE6=There's a Small Hotel [Richard Rodgers-Lorenz Hart] [1952]
TTITLE7=Come Rain or Come Shine [Harold Arlen-Johnny Mercer] [1954]
TTITLE8=Baubles, Bangles, and Beads [George Forrest-Robert Wright] [1962]
TTITLE9=Just in Time [Jule Styne-Betty Comden-Adolph Green] [1959]
TTITLE10=Wouldn't It Be Loverly? [Frederick Loewe-Alan Jay Lerner] [1958]
TTITLE11=Maria [Leonard Bernstein-Stephen Sondheim] [1962]
TTITLE12=Little Tin Box [Jerry Bock-Sheldon Harnick] [1960]
TTITLE13=Brotherhood of Man [Frank Loesser] [1964]
TTITLE14=Surrey with the Fringe on Top [Richard Rodgers-Oscar Hammerstein II) [1959]
TTITLE15=Body and Soul [John W. Green-Edward Heyman-Robert Sour-Frank Eyton] [1952]
EXTD=A 1994 Verve compilation\n\nOscar Peterson - piano\nRay Brown - bass\nvarious sidemen YEAR: 1994
EXTT0=
EXTT1=
EXTT2=
EXTT3=
EXTT4=
EXTT5=
EXTT6=
EXTT7=
EXTT8=
EXTT9=
EXTT10=
EXTT11=
EXTT12=
EXTT13=
EXTT14=
EXTT15=
PLAYORDER=
